<svg width="207" height="71" viewBox="0 0 207 71" fill="none" xmlns="http://www.w3.org/2000/svg">
<g clip-path="url(#clip0_4_11)">
<path d="M13.375 60.7344C13.375 60.5781 13.8698 60.3177 14.8594 59.9531C15.901 59.5885 17.151 59.1198 18.6094 58.5469C20.1198 57.9219 21.7344 57.1667 23.4531 56.2812C25.224 55.3958 26.8385 54.3281 28.2969 53.0781C29.8073 51.8281 31.0573 50.3698 32.0469 48.7031C33.0885 47.0365 33.6094 45.1354 33.6094 43C33.6094 41.5417 33.1667 39.9271 32.2812 38.1562C31.3958 36.3333 30.25 34.5365 28.8438 32.7656C27.4375 30.9948 25.7969 29.276 23.9219 27.6094C22.099 25.8906 20.25 24.3802 18.375 23.0781C16.5 21.776 14.651 20.7344 12.8281 19.9531C11.0573 19.1719 9.49479 18.7812 8.14062 18.7812C8.14062 21.8542 8.27083 24.9271 8.53125 28C8.84375 31.0208 9.15625 34.0677 9.46875 37.1406C9.78125 40.2135 10.0677 43.2865 10.3281 46.3594C10.6406 49.3802 10.7969 52.4531 10.7969 55.5781C10.7969 56.2552 10.7188 56.8021 10.5625 57.2188C10.4583 57.6354 9.91146 58.0521 8.92188 58.4688L8.0625 57.6094L4.39062 17.6875C4.28646 17.6875 4.02604 17.5833 3.60938 17.375C3.24479 17.1146 2.85417 16.8542 2.4375 16.5938C2.02083 16.2812 1.63021 15.9427 1.26562 15.5781C0.901042 15.2135 0.71875 14.875 0.71875 14.5625C0.71875 14.25 0.953125 13.8594 1.42188 13.3906C1.94271 12.9219 2.51562 12.4792 3.14062 12.0625C3.76562 11.5938 4.36458 11.2031 4.9375 10.8906C5.51042 10.526 5.92708 10.3438 6.1875 10.3438C6.96875 10.3438 7.4375 10.526 7.59375 10.8906C7.80208 11.2552 7.90625 11.6979 7.90625 12.2188C7.90625 12.6875 7.93229 13.2083 7.98438 13.7812C8.03646 14.3021 8.34896 14.6927 8.92188 14.9531C10.7448 15.9948 12.6719 17.0885 14.7031 18.2344C16.7344 19.3281 18.7656 20.5521 20.7969 21.9062C22.8802 23.2083 24.8333 24.6146 26.6562 26.125C28.5312 27.6354 30.1719 29.3021 31.5781 31.125C32.9844 32.8958 34.1042 34.8229 34.9375 36.9062C35.7708 38.9375 36.1875 41.1771 36.1875 43.625C36.1875 45.9167 35.5625 48.2344 34.3125 50.5781C33.0625 52.8698 31.474 54.9531 29.5469 56.8281C27.6198 58.651 25.4583 60.1615 23.0625 61.3594C20.7188 62.5052 18.4271 63.0781 16.1875 63.0781C15.5104 63.0781 14.8594 62.8698 14.2344 62.4531C13.6615 62.0365 13.375 61.4635 13.375 60.7344ZM39.8594 66.6719C39.3906 66.6719 39.0521 66.5417 38.8438 66.2812C38.6354 66.0208 38.4792 65.6823 38.375 65.2656C38.3229 64.901 38.3229 64.4844 38.375 64.0156C38.4271 63.599 38.4531 63.2604 38.4531 63L52.125 5.03125C52.2292 4.5625 52.4375 4.06771 52.75 3.54688C53.1146 2.97396 53.4792 2.55729 53.8438 2.29688C54 2.76562 54.2344 3.26042 54.5469 3.78125C54.8594 4.25 55.25 4.66667 55.7188 5.03125L77.4375 54.7969C77.4896 54.849 77.5156 54.9792 77.5156 55.1875V55.6562C77.5156 56.1771 77.4115 56.6458 77.2031 57.0625C76.9948 57.4271 76.6302 57.6094 76.1094 57.6094C75.4323 57.6094 74.9635 57.2969 74.7031 56.6719L69.2344 44.0156C69.2344 43.9635 68.8958 43.9115 68.2188 43.8594C67.5938 43.7552 67.099 43.7031 66.7344 43.7031C66.526 43.7031 66.2135 43.7292 65.7969 43.7812C65.4323 43.7812 65.0417 43.8073 64.625 43.8594C64.2083 43.8594 63.8177 43.8854 63.4531 43.9375C63.1406 43.9896 62.9583 44.0156 62.9062 44.0156C61.7083 44.224 60.1458 44.5104 58.2188 44.875C56.3438 45.1875 54.4948 45.5521 52.6719 45.9688C50.849 46.3333 49.2604 46.6719 47.9062 46.9844C46.6042 47.2969 45.901 47.5052 45.7969 47.6094L41.1875 65.6562C41.1354 66.0208 40.9792 66.2812 40.7188 66.4375C40.4583 66.5938 40.1719 66.6719 39.8594 66.6719ZM53.8438 10.4219C53.7917 10.5781 53.7135 10.7865 53.6094 11.0469C53.5573 11.2552 53.4792 11.5156 53.375 11.8281C53.2708 12.0885 53.1927 12.349 53.1406 12.6094C53.0885 12.8698 53.0365 13.0521 52.9844 13.1562C52.6198 14.5104 52.2292 16.151 51.8125 18.0781L49.0781 30.3438C48.6094 32.4792 48.1927 34.4323 47.8281 36.2031C47.5156 37.974 47.2292 39.5104 46.9688 40.8125C46.7604 42.1146 46.6562 42.9479 46.6562 43.3125C47.3854 43.3125 48.401 43.2604 49.7031 43.1562C51.0052 43.0521 52.3854 42.8958 53.8438 42.6875C55.3542 42.4271 56.8646 42.1667 58.375 41.9062C59.9375 41.6458 61.3177 41.3333 62.5156 40.9688C63.7656 40.6042 64.7812 40.2396 65.5625 39.875C66.3438 39.4583 66.7344 39.0417 66.7344 38.625C66.7344 38.5208 66.7083 38.3646 66.6562 38.1562C66.6562 37.8958 66.6302 37.7135 66.5781 37.6094L53.8438 10.4219ZM83.6875 18.625C83.3229 18.0521 83.0625 17.401 82.9062 16.6719C82.75 15.9427 82.6458 15.2135 82.5938 14.4844C82.5938 13.7552 82.5938 13.0521 82.5938 12.375C82.6458 11.6458 82.6719 10.9948 82.6719 10.4219V9.32812C82.6719 8.80729 82.6719 8.28646 82.6719 7.76562C82.724 7.19271 82.75 6.64583 82.75 6.125C82.8021 5.60417 82.8281 5.23958 82.8281 5.03125C82.8802 4.875 83.1406 4.66667 83.6094 4.40625C84.0781 4.14583 84.4167 4.04167 84.625 4.09375C85.5104 4.30208 86.0312 4.74479 86.1875 5.42188C86.3438 6.09896 86.3958 6.82812 86.3438 7.60938C86.2917 8.33854 86.2656 8.98958 86.2656 9.5625C86.3177 10.1354 86.6562 10.4219 87.2812 10.4219H98.1406C99.2865 10.4219 100.224 10.7604 100.953 11.4375C101.682 12.1146 102.255 12.9479 102.672 13.9375C103.089 14.9271 103.349 15.9427 103.453 16.9844C103.609 18.026 103.688 18.9375 103.688 19.7188C103.688 22.0625 103.323 24.4062 102.594 26.75C101.865 29.0417 100.927 31.3073 99.7812 33.5469C98.6354 35.7865 97.4375 37.9479 96.1875 40.0312C94.9375 42.0625 93.7917 43.9896 92.75 45.8125V47.2188C95.1458 47.2188 97.151 47.1146 98.7656 46.9062C100.432 46.6979 101.995 46.4896 103.453 46.2812C104.964 46.0208 106.526 45.7865 108.141 45.5781C109.807 45.3698 111.865 45.2656 114.312 45.2656H115.875C116.604 45.2656 117.385 45.2917 118.219 45.3438C119.052 45.3438 119.807 45.3438 120.484 45.3438H122.047C122.516 45.5521 122.802 45.8385 122.906 46.2031C123.01 46.5156 123.062 46.8542 123.062 47.2188C123.062 47.8438 122.932 48.4167 122.672 48.9375C122.464 49.4062 121.969 49.7448 121.188 49.9531C119.26 49.1198 117.359 48.625 115.484 48.4688C113.609 48.3125 111.734 48.3125 109.859 48.4688C108.036 48.625 106.24 48.9115 104.469 49.3281C102.75 49.7448 101.005 50.1094 99.2344 50.4219C97.4635 50.6823 95.6667 50.8906 93.8438 51.0469C92.0729 51.2031 90.276 51.099 88.4531 50.7344C88.4531 52.401 88.5573 54.0156 88.7656 55.5781C89.026 57.1406 89.1562 58.7552 89.1562 60.4219C89.1562 60.9427 89.1042 61.5156 89 62.1406C88.9479 62.7656 88.5573 63.0781 87.8281 63.0781C87.5156 63.0781 87.2292 63.026 86.9688 62.9219C86.7083 62.7656 86.526 62.4792 86.4219 62.0625C86.3698 61.9062 86.2917 61.5156 86.1875 60.8906C86.0833 60.2656 85.9792 59.6406 85.875 59.0156C85.8229 58.3385 85.7448 57.7135 85.6406 57.1406C85.5885 56.5156 85.5365 56.0469 85.4844 55.7344C85.4323 54.7969 85.3542 53.3906 85.25 51.5156C85.1458 49.5885 85.0156 47.401 84.8594 44.9531C84.7552 42.4531 84.625 39.875 84.4688 37.2188C84.3646 34.5104 84.2344 31.9323 84.0781 29.4844C83.974 27.0365 83.8958 24.849 83.8438 22.9219C83.7917 20.9948 83.7396 19.5625 83.6875 18.625ZM86.4219 17.6875C86.474 18.4688 86.526 19.6406 86.5781 21.2031C86.6823 22.7135 86.7865 24.4583 86.8906 26.4375C87.0469 28.4167 87.1771 30.5 87.2812 32.6875C87.4375 34.8229 87.5677 36.8802 87.6719 38.8594C87.8281 40.7865 87.9323 42.5573 87.9844 44.1719C88.0885 45.7344 88.1667 46.8802 88.2188 47.6094C89.4688 45.6823 90.8229 43.599 92.2812 41.3594C93.7396 39.0677 95.1198 36.724 96.4219 34.3281C97.724 31.8802 98.7917 29.4062 99.625 26.9062C100.51 24.4062 100.953 21.9583 100.953 19.5625C100.953 18.5729 100.745 17.6875 100.328 16.9062C99.9635 16.0729 99.4427 15.3958 98.7656 14.875C98.1406 14.3021 97.3854 13.8854 96.5 13.625C95.6146 13.3125 94.7031 13.1562 93.7656 13.1562C93.2969 13.1562 92.6458 13.2083 91.8125 13.3125C90.9792 13.4167 90.1458 13.599 89.3125 13.8594C88.5312 14.1198 87.8542 14.4844 87.2812 14.9531C86.7083 15.4219 86.4219 16.0208 86.4219 16.75V17.6875ZM162.672 4.25C162.099 3.10417 162.151 2.24479 162.828 1.67188C163.505 1.09896 164.312 0.8125 165.25 0.8125V5.10938L159.625 70.9688L156.734 69.4844L162.672 4.25ZM120.406 10.3438C120.354 10.3438 120.328 10.2917 120.328 10.1875V9.95312C120.328 9.58854 120.458 9.27604 120.719 9.01562C120.927 8.70312 121.24 8.54688 121.656 8.54688L121.734 8.625H122.047L156.344 27.2188C157.385 27.4271 158.193 27.7135 158.766 28.0781C159.391 28.3906 159.703 29.1198 159.703 30.2656C159.703 30.6823 159.651 31.151 159.547 31.6719C159.443 32.1406 159.052 32.375 158.375 32.375H157.984C157.828 32.2708 157.594 32.1146 157.281 31.9062C156.969 31.6458 156.63 31.3854 156.266 31.125C155.901 30.8125 155.562 30.5521 155.25 30.3438C154.938 30.0833 154.755 29.875 154.703 29.7188L120.406 10.3438ZM168.531 66.6719C168.062 66.6719 167.724 66.5417 167.516 66.2812C167.307 66.0208 167.151 65.6823 167.047 65.2656C166.995 64.901 166.995 64.4844 167.047 64.0156C167.099 63.599 167.125 63.2604 167.125 63L180.797 5.03125C180.901 4.5625 181.109 4.06771 181.422 3.54688C181.786 2.97396 182.151 2.55729 182.516 2.29688C182.672 2.76562 182.906 3.26042 183.219 3.78125C183.531 4.25 183.922 4.66667 184.391 5.03125L206.109 54.7969C206.161 54.849 206.188 54.9792 206.188 55.1875V55.6562C206.188 56.1771 206.083 56.6458 205.875 57.0625C205.667 57.4271 205.302 57.6094 204.781 57.6094C204.104 57.6094 203.635 57.2969 203.375 56.6719L197.906 44.0156C197.906 43.9635 197.568 43.9115 196.891 43.8594C196.266 43.7552 195.771 43.7031 195.406 43.7031C195.198 43.7031 194.885 43.7292 194.469 43.7812C194.104 43.7812 193.714 43.8073 193.297 43.8594C192.88 43.8594 192.49 43.8854 192.125 43.9375C191.812 43.9896 191.63 44.0156 191.578 44.0156C190.38 44.224 188.818 44.5104 186.891 44.875C185.016 45.1875 183.167 45.5521 181.344 45.9688C179.521 46.3333 177.932 46.6719 176.578 46.9844C175.276 47.2969 174.573 47.5052 174.469 47.6094L169.859 65.6562C169.807 66.0208 169.651 66.2812 169.391 66.4375C169.13 66.5938 168.844 66.6719 168.531 66.6719ZM182.516 10.4219C182.464 10.5781 182.385 10.7865 182.281 11.0469C182.229 11.2552 182.151 11.5156 182.047 11.8281C181.943 12.0885 181.865 12.349 181.812 12.6094C181.76 12.8698 181.708 13.0521 181.656 13.1562C181.292 14.5104 180.901 16.151 180.484 18.0781L177.75 30.3438C177.281 32.4792 176.865 34.4323 176.5 36.2031C176.188 37.974 175.901 39.5104 175.641 40.8125C175.432 42.1146 175.328 42.9479 175.328 43.3125C176.057 43.3125 177.073 43.2604 178.375 43.1562C179.677 43.0521 181.057 42.8958 182.516 42.6875C184.026 42.4271 185.536 42.1667 187.047 41.9062C188.609 41.6458 189.99 41.3333 191.188 40.9688C192.438 40.6042 193.453 40.2396 194.234 39.875C195.016 39.4583 195.406 39.0417 195.406 38.625C195.406 38.5208 195.38 38.3646 195.328 38.1562C195.328 37.8958 195.302 37.7135 195.25 37.6094L182.516 10.4219Z" fill="white"/>
</g>
<defs>
<clipPath id="clip0_4_11">
<rect width="207" height="71" fill="white"/>
</clipPath>
</defs>
</svg>
